<svg version="1" xmlns="http://www.w3.org/2000/svg" width="1365.333" height="1365.333" viewBox="0 0 1024.000000 1024.000000"><path d="M162 169.7c0 1.4-12.1 156-27 343.5-14.8 187.5-27 341.1-27 341.4 0 .2 49.5.4 110 .4h109.9l.5-3.3c.6-3.5 23.6-294.9 23.6-298.5V551h316.2l-.6 5.7c-.6 5.4-23.6 295.5-23.6 297.4 0 .5 46.2.9 109.8.9h109.7l14.8-186.8c8.1-102.7 20.1-254.9 26.7-338.2 6.5-83.3 12.2-154.1 12.5-157.3l.6-5.7H808c-104.1 0-110 .1-110 1.7 0 3.3-18 232.8-18.6 236l-.5 3.3H364v-2.4c0-1.3 3.4-45.1 7.6-97.2 4.6-57.6 7.4-98 7.1-102.9-1.1-20.3-13-33.2-34.3-37-6.4-1.2-24.6-1.4-95.1-1.5H162v2.7z"/></svg>