
<svg xmlns="http://www.w3.org/2000/svg" style="position:absolute; width: 0; height: 0"><symbol viewBox="0 0 8 5.4" id="icon-arrow-bottom"><path d="M0 1.4L1.4 0l4 4L4 5.4l-4-4z"></path><path d="M8 1.4L6.6 0l-4 4L4 5.4l4-4z"></path></symbol><symbol viewBox="0 0 14 9" id="icon-arrow-top"><path d="M14 6.64L7.96.91 7 0l-.96.91L0 6.64 1.92 9 7 4.17 12.08 9 14 6.64z"></path></symbol><symbol viewBox="0 0 10 8" id="icon-check"><path fill-rule="evenodd" d="M.757 4.414l.707-.707 2.829 2.829-.707.707L.757 4.414z"></path><path fill-rule="evenodd" d="M3.586 7.243l-.707-.707L8.536.879l.707.707-5.657 5.657z"></path></symbol><symbol viewBox="0 0 7 15" id="icon-facebook"><path fill-rule="evenodd" d="M4.868 15H1.826V7.5H0V5h1.825V3.48c0-2.082.616-3.472 3-3.472h1.862v2.5H5.572c-.93 0-.992.455-.992 1.121v1.377h2.252l-.263 2.5h-1.7V15h-.001z"></path></symbol><symbol viewBox="0 0 36 34" id="icon-icon-contact"><path d="M33.678 19.907c3.197-4.476 3.062-10.369-.336-14.71C29.943.855 24.018-.993 18.55.58 13.08 2.155 9.256 6.812 9 12.206c-3.73.836-6.789 3.345-8.189 6.715-1.4 3.37-.963 7.175 1.169 10.183L.342 32.64a.816.816 0 0 0 .186.946.94.94 0 0 0 1.002.176l3.744-1.581c3.207 1.983 7.239 2.357 10.793 1.001 3.554-1.356 6.18-4.27 7.027-7.801a13.92 13.92 0 0 0 6.912-2.108l4.428 1.87a.959.959 0 0 0 1.008-.17.816.816 0 0 0 .198-.952l-1.962-4.114zM11.7 32.3a10.236 10.236 0 0 1-5.814-1.7.945.945 0 0 0-.9-.085l-2.07.867.918-1.955a.811.811 0 0 0-.108-.85c-2.76-3.46-2.643-8.258.284-11.593 2.928-3.336 7.898-4.335 12.01-2.416 4.112 1.92 6.29 6.257 5.26 10.479-1.028 4.222-4.993 7.224-9.58 7.253zm18.558-10.693a.945.945 0 0 0-.9.085A11.992 11.992 0 0 1 23.4 23.8v-.782c.014-2.941-1.211-5.767-3.407-7.853-2.195-2.086-5.179-3.26-8.293-3.265h-.9c.365-4.686 3.828-8.641 8.632-9.86 4.805-1.22 9.9.564 12.703 4.446 2.803 3.882 2.7 9.013-.257 12.792a.811.811 0 0 0-.108.85l1.224 2.618-2.736-1.139z" fill="#959595" fill-rule="nonzero"></path></symbol><symbol viewBox="0 0 18 23.4" id="icon-icon-document"><path d="M12.9 23.4c.2 0 .3-.1.4-.2l4.5-4.5c.1-.1.2-.3.2-.5V2c0-1.1-.9-1.9-1.9-2H1.9C.9 0 0 .9 0 2v19.5c0 1.1.9 1.9 1.9 2l11-.1zm.6-2.3v-2.3h2.3l-2.3 2.3zm-12.2.3V2c0-.3.3-.6.6-.6H16c.3 0 .6.3.6.6v15.6h-3.2c-.7 0-1.3.6-1.3 1.3V22H1.9c-.3.1-.6-.2-.6-.6z"></path></symbol><symbol viewBox="0 0 19 33.45" id="icon-icon-fridge"><path d="M3.15 9.7a.54.54 0 0 0 .61-.46V3.81a.54.54 0 0 0-1.07 0v5.43a.54.54 0 0 0 .46.46zm.15 5.89a.54.54 0 0 0-.61.46v6.85a.54.54 0 0 0 1.07 0v-6.85a.54.54 0 0 0-.46-.46z"></path><path d="M18.16 0H.84a.84.84 0 0 0-.55.2.83.83 0 0 0-.24.63V12.3a.5.5 0 0 0 0 .44v18.91a.82.82 0 0 0 .2.54.85.85 0 0 0 .59.24h1.84v.44a.51.51 0 0 0 .51.51h.48a.51.51 0 0 0 .51-.51v-.46h10.64v.44a.51.51 0 0 0 .51.51h.48a.51.51 0 0 0 .51-.51v-.46h1.8a.84.84 0 0 0 .59-.24.83.83 0 0 0 .25-.59V12.72a.52.52 0 0 0 0-.4V.84a.82.82 0 0 0-.2-.54V.24a.84.84 0 0 0-.6-.24zm-.23 1.07V12H1.07V1.07zM1.07 31.42V13.05h16.86v18.37zm17.09.23L18 31.5l.16.12z"></path></symbol><symbol viewBox="0 0 28.34 36" id="icon-icon-laundry"><path d="M27.74 0H.6a.6.6 0 0 0-.6.6v33.2a.6.6 0 0 0 .6.6H2V36h1.25v-1.6h21.84V36h1.21v-1.6h1.44a.6.6 0 0 0 .6-.6V.6a.6.6 0 0 0-.6-.6zm-.61 33.2H1.21V9.09h25.92zm0-25.31H1.21V1.2h25.93z"></path><path d="M14.31 30.75a9.6 9.6 0 1 0-9.67-9.53 9.6 9.6 0 0 0 9.67 9.53zm.06-18a8.4 8.4 0 0 1-.18 16.8 8.4 8.4 0 1 1 .2-16.8z"></path><path d="M14.27 28.3a7.15 7.15 0 1 0-7.2-7.1 7.15 7.15 0 0 0 7.2 7.1zm-.1-13.2a6 6 0 1 1-6 6 6 6 0 0 1 6-6zM2.98 3.41h1.21v2.27H2.98zm2.88 0h1.21v2.27H5.86zm2.89 0h1.21v2.27H8.75zm11.14.54h4.86v1.2h-4.86z"></path></symbol><symbol viewBox="0 0 28 36" id="icon-icon-manuals"><g fill-rule="nonzero" fill="none"><g fill="#959595"><path d="M21.64 25.344H9.113c-.285 0-.475.192-.475.48s.19.48.475.48H21.64c.284 0 .474-.192.474-.48s-.19-.48-.474-.48zM21.64 28.32H9.113c-.285 0-.475.192-.475.48s.19.48.475.48H21.64c.284 0 .474-.192.474-.48s-.19-.48-.474-.48z"></path><path d="M27.43.384H1.804c-.284 0-.474.192-.474.48V2.64H.522c-.285 0-.475.192-.475.48s.19.48.475.48h.807v1.728H.522c-.285 0-.475.192-.475.48s.19.48.475.48h.807v1.728H.522c-.285 0-.475.192-.475.48s.19.48.475.48h.807v1.728H.522c-.285 0-.475.192-.475.48s.19.48.475.48h.807v1.776H.522c-.285 0-.475.192-.475.48s.19.48.475.48h.807v1.728H.522c-.285 0-.475.192-.475.48s.19.48.475.48h.807v1.728H.522c-.285 0-.475.192-.475.48s.19.48.475.48h.807v1.728H.522c-.285 0-.475.192-.475.48s.19.48.475.48h.807v1.728H.522c-.285 0-.475.192-.475.48s.19.48.475.48h.807v1.728H.522c-.285 0-.475.192-.475.48s.19.48.475.48h.807v1.728H.522c-.285 0-.475.192-.475.48s.19.48.475.48h.807v1.728H.522c-.285 0-.475.192-.475.48s.19.48.475.48h.807v2.112c0 .288.19.48.474.48h25.628c.284 0 .474-.192.474-.48V.768c0-.192-.237-.384-.474-.384zm-.474 34.56H2.278v-1.632h.807c.284 0 .474-.192.474-.48s-.19-.48-.474-.48h-.807v-1.728h.807c.284 0 .474-.192.474-.48s-.19-.48-.474-.48h-.807v-1.728h.807c.284 0 .474-.192.474-.48s-.19-.48-.474-.48h-.807v-1.728h.807c.284 0 .474-.192.474-.48s-.19-.48-.474-.48h-.807V22.56h.807c.284 0 .474-.192.474-.48s-.19-.48-.474-.48h-.807v-1.728h.807c.284 0 .474-.192.474-.48s-.19-.48-.474-.48h-.807v-1.728h.807c.284 0 .474-.192.474-.48s-.19-.48-.474-.48h-.807V14.4h.807c.284 0 .474-.192.474-.48s-.19-.48-.474-.48h-.807v-1.728h.807c.284 0 .474-.192.474-.48s-.19-.48-.474-.48h-.807V9.024h.807c.284 0 .474-.192.474-.48s-.19-.48-.474-.48h-.807V6.336h.807c.284 0 .474-.192.474-.48s-.19-.48-.474-.48h-.807V3.648h.807c.284 0 .474-.192.474-.48s-.19-.48-.474-.48h-.807V1.392h24.678v33.552z"></path></g><path d="M19.197 15.76a.242.242 0 0 0 .012-.338.255.255 0 0 0-.342-.011l-3.675 3.418V8.462a.239.239 0 0 0-.24-.237.239.239 0 0 0-.24.237V18.83l-3.675-3.418a.253.253 0 0 0-.34.01.24.24 0 0 0 .01.338l4.08 3.797a.26.26 0 0 0 .33 0l4.08-3.797z" fill="#000" stroke="#959595" stroke-width=".5"></path></g></symbol><symbol viewBox="0 0 19 31.67" id="icon-icon-phone"><path d="M7.72 3.58h3.55A.59.59 0 0 0 11.9 3a.59.59 0 0 0-.63-.55H7.72A.59.59 0 0 0 7.1 3a.59.59 0 0 0 .62.58z"></path><path d="M18 0H1a1 1 0 0 0-1 1v29.67a1 1 0 0 0 1 1h17a1 1 0 0 0 1-1V1a1 1 0 0 0-1-1zm0 30.42H1V1h17z"></path><ellipse cx="9.51" cy="27.62" rx="1.1" ry="1.09"></ellipse></symbol><symbol viewBox="0 0 36 28" id="icon-icon-register"><g fill="#959595" fill-rule="nonzero"><path d="M27.125 18.047a.518.518 0 0 0-.507.529v8.114H1.484V2.828h22c.281 0 .508-.237.508-.528a.518.518 0 0 0-.507-.529H.977A.518.518 0 0 0 .47 2.3v24.92c0 .291.227.527.507.527h26.148c.28 0 .507-.236.507-.528v-8.643a.518.518 0 0 0-.507-.529z"></path><path d="M15.653 6.248a.518.518 0 0 0-.507-.529H4.638a.518.518 0 0 0-.507.529c0 .292.227.528.507.528h10.508c.28 0 .507-.236.507-.528zM4.638 11.079h5.043c.28 0 .507-.236.507-.528a.518.518 0 0 0-.507-.529H4.638a.518.518 0 0 0-.507.529c0 .292.228.528.507.528zM14.25 14.853a.518.518 0 0 0-.507-.528H4.638a.518.518 0 0 0-.507.528c0 .292.227.529.507.529h9.105c.28 0 .507-.237.507-.529zM4.638 19.685h3.733c.28 0 .507-.237.507-.529a.518.518 0 0 0-.507-.528H4.638a.518.518 0 0 0-.507.528c0 .292.228.529.507.529zM4.638 23.987h5.7c.28 0 .507-.236.507-.528a.518.518 0 0 0-.507-.529h-5.7a.518.518 0 0 0-.507.529c0 .292.228.528.507.528zM34.795 1.198c-.54-.562-1.22-.86-1.968-.86-.953 0-1.92.484-2.797 1.398l-15.2 15.837c-.003.004-.004.009-.008.012-.027.03-.046.067-.066.104-.014.026-.031.05-.04.077-.003.008-.01.012-.011.02l-1.669 5.53a.544.544 0 0 0 .13.537.493.493 0 0 0 .518.122l5.202-1.85c.005 0 .008-.006.013-.008.024-.01.043-.026.065-.039.038-.022.076-.043.107-.074l.007-.005 15.2-15.837c1.824-1.9 1.574-3.862.517-4.964zm-4.406 1.658l1.407 1.466 1.407 1.466L18.721 20.88l-2.815-2.933 14.483-15.09zM15.42 18.936l2.366 2.464-3.483 1.238 1.117-3.703zm18.48-13.913l-2.778-2.895c1.05-.892 2.204-.964 2.955-.183.763.796.683 1.969-.176 3.078z"></path></g></symbol><symbol viewBox="0 0 21.45 21.45" id="icon-icon-search"><path d="M8.5 17A8.5 8.5 0 1 1 17 8.5 8.51 8.51 0 0 1 8.5 17zm0-14.5a6 6 0 1 0 6 6 6 6 0 0 0-6-6z"></path><path d="M11.55 14.38l2.83-2.83 7.12 7.07-2.88 2.88z"></path></symbol><symbol viewBox="0 0 34.8 24.92" id="icon-icon-tv"><path d="M28.85 24.87l-.01-.01-.01-.01v-.01h-.02v-.01l-.01-.01h-.01v-.01l-.01-.01h-.01l-.01-.01-.01-.01h-.02l-.02-.02-.01-.01-.03-.01-.03-.01-.02-.01-.03-.02-.04-.01-.06-.02-.07-.02-.09-.03-.08-.02-.2-.05-.22-.04-.25-.05-.59-.09-.69-.08-.8-.08-1.83-.13-2.05-.09-4.22-.07-4.22.07-2.05.09-1.83.13-.8.08-.69.08-.59.09-.25.05-.22.04-.2.05-.08.02-.09.03-.07.02-.06.02-.04.01-.03.02-.02.01h-.03l-.02.02-.02.01-.02.01-.02.01-.01.01h-.01l-.01.01v.01h-.01l-.01.01v.01h-.02v.01l-.01.01h-.01v.02h-.01v.01l-.01.01v.03h22.92v-.03l-.01-.01v-.01zM0 0v23.46h34.8V0zm33.63 22.28H1.17V1.17h32.46z"></path></symbol><symbol viewBox="0 0 26.96 35.97" id="icon-icon-warranty"><path d="M26.45 3.88h-3.31V.55a.55.55 0 0 0-.55-.55H.55A.55.55 0 0 0 0 .55v31a.55.55 0 0 0 .55.55h3.31v3.32a.55.55 0 0 0 .55.55h22a.55.55 0 0 0 .55-.55v-31a.55.55 0 0 0-.51-.54zM1.1 31V1.11H22V31zm24.8 3.89H5v-2.77h17.59a.55.55 0 0 0 .55-.55V5h2.76z"></path><path d="M4.85 6.65h8.42a.56.56 0 0 0 .15-1.11H5a.56.56 0 0 0-.15 1.11zm13.33 2.76H5a.56.56 0 0 0 0 1.11h13.18a.56.56 0 0 0 0-1.11zm0 3.88H5a.56.56 0 0 0 0 1.11h13.18a.56.56 0 0 0 0-1.11zm-.89 6.13l-5.51-2.22a.55.55 0 0 0-.41 0l-5.5 2.21a.55.55 0 0 0-.34.56l.55 6.09a.55.55 0 0 0 .28.43l5 2.77a.55.55 0 0 0 .54 0l5-2.77a.55.55 0 0 0 .28-.43l.45-6.06a.55.55 0 0 0-.34-.58zM16 25.69l-4.44 2.48-4.43-2.48-.48-5.39 4.92-2 4.92 2z"></path><path d="M11 20.49v1.66l-1.32-1a.55.55 0 0 0-.77.11A.56.56 0 0 0 9 22l1.62 1.22L9 24.48a.56.56 0 0 0-.11.78.55.55 0 0 0 .77.11l1.32-1V26a.55.55 0 0 0 1.1 0v-1.63l1.32 1a.55.55 0 0 0 .77-.11.56.56 0 0 0-.11-.78l-1.62-1.22L14.11 22a.56.56 0 0 0 .11-.78.55.55 0 0 0-.77-.11l-1.32 1v-1.62a.55.55 0 0 0-1.1 0z"></path></symbol><symbol viewBox="0 0 16 16" id="icon-instagram"><g fill-rule="evenodd"><path d="M8.064 3.984c-2.24 0-4.096 1.789-4.096 4.016 0 2.227 1.824 4.016 4.096 4.016 2.272 0 4.096-1.82 4.096-4.016 0-2.196-1.856-4.016-4.096-4.016zm0 6.589C6.624 10.573 5.44 9.412 5.44 8s1.184-2.573 2.624-2.573c1.44 0 2.624 1.161 2.624 2.573s-1.184 2.573-2.624 2.573z"></path><ellipse cx="12.32" cy="3.89" rx=".928" ry=".91"></ellipse><path d="M14.72 1.537C13.888.69 12.704.251 11.36.251H4.768C1.984.251.128 2.071.128 4.8v6.431c0 1.35.448 2.51 1.344 3.357.864.816 2.016 1.224 3.328 1.224h6.528c1.376 0 2.528-.44 3.36-1.224.864-.815 1.312-1.976 1.312-3.325V4.8c0-1.318-.448-2.447-1.28-3.263zm-.192 9.726c0 .972-.288 1.757-.864 2.29-.576.533-1.376.816-2.336.816H4.8c-.96 0-1.76-.283-2.336-.816-.576-.565-.864-1.35-.864-2.322V4.8c0-.941.288-1.725.864-2.29.544-.534 1.376-.816 2.336-.816h6.592c.96 0 1.76.282 2.336.847.544.565.864 1.35.864 2.259v6.463h-.064z"></path></g></symbol><symbol viewBox="0 0 46.03 39.01" id="icon-layers"><path fill="none" d="M41.22 12.51L23.02 3.2l-18.2 9.31 18.2 9.3 18.2-9.3z"></path><path d="M45.33 18.23a1.5 1.5 0 0 0-1.5-.07L23.02 28.81 2.21 18.16a1.5 1.5 0 1 0-1.37 2.67l21.5 11a1.5 1.5 0 0 0 1.38 0l21.5-11a1.5 1.5 0 0 0 .13-2.6z"></path><path d="M45.33 25.24a1.5 1.5 0 0 0-1.5-.07L23.02 35.81 2.21 25.16a1.5 1.5 0 1 0-1.37 2.67l21.5 11a1.5 1.5 0 0 0 1.38 0l21.5-11a1.5 1.5 0 0 0 .13-2.6z"></path><path d="M.83 13.84l21.5 11a1.5 1.5 0 0 0 1.38 0l21.5-11a1.5 1.5 0 0 0 0-2.67L23.71.16a1.49 1.49 0 0 0-1.37 0l-21.5 11a1.5 1.5 0 0 0 0 2.67zM23.02 3.2l18.2 9.3-18.2 9.3-18.21-9.3z"></path></symbol><symbol viewBox="0 0 142 23" id="icon-logo"><path fill-rule="evenodd" d="M141.635 15.93h-13.839l.006.052c.006 1.063.965 3.385 5.784 3.548.106 0 .21.005.319.005 3.462 0 6.64-.667 7.165-.781-.179 1.111-.41 2.552-.522 3.258-1.068.302-3.57.867-7.469.867-10.607 0-11.902-4.961-11.626-8.316.305-3.7 3.913-8.17 11.133-8.107.695.005 1.334.062 1.93.139 1.61.241 8.483 1.724 7.119 9.335zm-9.182-6.355c-2.777.016-4.085 1.704-4.387 3.369h8.164s.267-3.336-3.777-3.369zm-18.494 3.603c3.101 1.363 6.284 2.687 5.797 5.657-.529 3.24-5.359 3.846-9.32 3.846-.319 0-.639-.003-.96-.011-5.442-.147-8.163-.568-8.163-.568l.227-3.522s3.758.682 7.32.792c2.018.061 3.501-.05 3.538-.731.035-.622-.971-.929-3.113-1.772l-1.88-.732c-2.265-.924-5.972-2.253-5.784-5.299.182-2.972 3.852-3.901 6.021-4.206 1.28-.178 2.616-.248 4.472-.226 4.095.048 7.524.771 7.524.771l-.326 3.274s-3.648-.784-7.31-.778c-2.335.003-3.116.26-3.243.647-.223.691 1.064 1.187 2.764 1.857l2.436 1.001zm-15.288 9.365h-6.35s.497-7.559.676-10.362c.146-2.282-1.612-2.252-2.218-2.278-1.781-.076-4.041.242-4.041.242l-.775 12.398h-6.375l.997-15.273s5.018-.573 8.967-.707c.477-.016.935-.022 1.364-.022 1.656 0 2.866.096 3.019.112 2.278.231 5.722.584 5.417 5.365l-.681 10.525zM63.694 15.93l.005.052c.008 1.063.966 3.385 5.785 3.548.105 0 .209.005.318.005 3.462 0 6.64-.667 7.167-.781l-.525 3.258c-1.065.302-3.569.867-7.466.867-10.607 0-11.904-4.961-11.629-8.316.305-3.7 3.915-8.17 11.135-8.107.695.005 1.332.062 1.929.139 1.611.241 8.485 1.724 7.12 9.335H63.694zm4.657-6.355c-2.777.016-4.086 1.704-4.389 3.369h8.166s.267-3.336-3.777-3.369zM49.783 13.18c3.101 1.362 6.284 2.688 5.797 5.656-.528 3.239-5.359 3.845-9.32 3.845-.318 0-.639-.002-.959-.009-5.443-.147-8.164-.57-8.164-.57l.228-3.521s3.758.683 7.319.791c2.018.063 3.502-.047 3.538-.73.034-.621-.971-.929-3.114-1.773l-1.878-.731c-2.266-.922-5.973-2.254-5.785-5.297.182-2.974 3.852-3.904 6.021-4.207 1.28-.179 2.616-.248 4.472-.226 4.094.047 7.524.771 7.524.771l-.326 3.274s-3.648-.783-7.31-.778c-2.335.002-3.116.259-3.243.647-.223.691 1.063 1.185 2.766 1.856l2.434 1.002zM35.332 4.989h-6.805l.319-4.145h5.273c1.093 0 1.472.458 1.412 1.386-.026.398-.199 2.759-.199 2.759zm-1.416 17.584h-6.797l1.238-15.81h6.804l-1.245 15.81zm-16.998-.001l.76-9.602H7.719l-.761 9.602H0L1.721.844H6.86c.573 0 1.723.051 1.707 1.386l-.491 6.209h9.962l.599-7.595h6.934l-1.718 21.728h-6.935z"></path></symbol><symbol viewBox="0 0 19 19" id="icon-phone"><path d="M7.05 4.91A10.86 10.86 0 0 1 6.5 1.5 1.5 1.5 0 0 0 5 0H1.5A1.5 1.5 0 0 0 0 1.5 17.52 17.52 0 0 0 17.5 19a1.5 1.5 0 0 0 1.5-1.5v-3.49a1.5 1.5 0 0 0-1.5-1.51 10.86 10.86 0 0 1-3.41-.54 1.46 1.46 0 0 0-1.48.31l-2.11 1.64A12 12 0 0 1 5.09 8.5l1.58-2.06a1.51 1.51 0 0 0 .38-1.53z"></path></symbol><symbol viewBox="0 0 39.79 39.79" id="icon-search"><path d="M17.63 3.75a13.88 13.88 0 1 0 13.88 13.88A13.89 13.89 0 0 0 17.63 3.75z" fill="none"></path><path d="M31.34 28.68a17.67 17.67 0 1 0-2.65 2.65l8.45 8.42 2.61-2.61zM17.63 31.5a13.88 13.88 0 1 1 13.88-13.87A13.89 13.89 0 0 1 17.63 31.5z"></path></symbol><symbol viewBox="0 0 12 9" id="icon-twitter"><path d="M12.005 1.063c-.442.18-.917.302-1.415.357A2.323 2.323 0 0 0 11.673.164a5.209 5.209 0 0 1-1.565.551A2.559 2.559 0 0 0 8.31-.002c-1.361 0-2.464 1.017-2.464 2.271 0 .178.022.351.064.517C3.862 2.692 2.047 1.787.832.414a2.116 2.116 0 0 0-.334 1.141c0 .788.435 1.483 1.096 1.89a2.59 2.59 0 0 1-1.116-.284v.029c0 1.1.849 2.018 1.976 2.227a2.658 2.658 0 0 1-1.113.039c.314.902 1.224 1.559 2.302 1.577a5.215 5.215 0 0 1-3.06.972c-.199 0-.395-.011-.588-.032a7.417 7.417 0 0 0 3.777 1.02c4.532 0 7.01-3.46 7.01-6.461 0-.098-.002-.196-.007-.294.482-.32.899-.72 1.23-1.175z" fill-rule="evenodd"></path></symbol><symbol viewBox="0 0 30 19" id="icon-vk"><path d="M29.326 1.777c.204-.68 0-1.18-.97-1.18h-3.213c-.816 0-1.193.431-1.397.908 0 0-1.633 3.98-3.947 6.567-.749.748-1.089.986-1.497.986-.204 0-.5-.238-.5-.918V1.777c0-.817-.237-1.18-.917-1.18h-5.048c-.51 0-.817.378-.817.737 0 .775 1.157.953 1.276 3.13v4.73c0 1.037-.187 1.225-.595 1.225-1.09 0-3.738-3.998-5.308-8.574C6.085.955 5.776.596 4.955.596H1.743c-.917 0-1.1.432-1.1.909 0 .85 1.088 5.07 5.07 10.65 2.653 3.81 6.392 5.876 9.795 5.876 2.042 0 2.294-.458 2.294-1.249v-2.88c0-.918.194-1.1.84-1.1.476 0 1.293.237 3.199 2.075 2.177 2.178 2.536 3.154 3.761 3.154h3.212c.918 0 1.376-.458 1.112-1.364-.29-.902-1.33-2.212-2.71-3.764-.748-.884-1.87-1.837-2.211-2.314-.476-.612-.34-.884 0-1.429 0 0 3.913-5.512 4.321-7.383z"></path></symbol><symbol viewBox="0 0 15.99 12" id="icon-youtube"><path class="cls-1" d="M15.84 2.59A3.82 3.82 0 0 0 15.2.9a2.23 2.23 0 0 0-1.6-.73C11.36 0 8 0 8 0S4.64 0 2.4.17A2.23 2.23 0 0 0 .8.9a3.82 3.82 0 0 0-.64 1.69A27.46 27.46 0 0 0 0 5.35v1.29a27.53 27.53 0 0 0 .16 2.77A3.86 3.86 0 0 0 .8 11.1a2.61 2.61 0 0 0 1.76.73C3.84 12 8 12 8 12s3.36 0 5.6-.18a2.21 2.21 0 0 0 1.6-.72 3.86 3.86 0 0 0 .64-1.69A27.46 27.46 0 0 0 16 6.65v-1.3a27.46 27.46 0 0 0-.16-2.76zM6 9V3l5 3z"></path></symbol></svg>
