<?xml version="1.0" encoding="utf-8"?>
<!-- Generator: Adobe Illustrator 22.1.0, SVG Export Plug-In . SVG Version: 6.00 Build 0)  -->
<svg version="1.1" id="Layer_1" xmlns="http://www.w3.org/2000/svg" xmlns:xlink="http://www.w3.org/1999/xlink" x="0px" y="0px"
	 viewBox="0 0 38 62" style="enable-background:new 0 0 38 62;" xml:space="preserve">
<style type="text/css">
	.st0{clip-path:url(#SVGID_2_);}
	.st1{clip-path:url(#SVGID_4_);}
	.st2{clip-path:url(#SVGID_6_);}
	.st3{clip-path:url(#SVGID_8_);}
	.st4{clip-path:url(#SVGID_10_);}
	.st5{clip-path:url(#SVGID_12_);}
</style>
<g>
	<defs>
		<path id="SVGID_1_" d="M22.4,5.4h-6.7c-0.7,0-1.2,0.5-1.2,1.2c0,0.7,0.5,1.2,1.2,1.2h6.7c0.7,0,1.2-0.5,1.2-1.2
			C23.6,5.9,23,5.4,22.4,5.4z"/>
	</defs>
	<clipPath id="SVGID_2_">
		<use xlink:href="#SVGID_1_"  style="overflow:visible;"/>
	</clipPath>
	<g class="st0">
		<defs>
			<rect id="SVGID_3_" x="-659" y="-120" width="1600" height="900"/>
		</defs>
		<clipPath id="SVGID_4_">
			<use xlink:href="#SVGID_3_"  style="overflow:visible;"/>
		</clipPath>
		<rect x="9.4" y="0.4" class="st1" width="19.1" height="12.4"/>
	</g>
</g>
<g>
	<defs>
		<path id="SVGID_5_" d="M34.6,57.5c0,0.7-0.5,1.2-1.2,1.2H4.6c-0.7,0-1.2-0.5-1.2-1.2V4.5c0-0.7,0.5-1.2,1.2-1.2h28.9
			c0.7,0,1.2,0.5,1.2,1.2V57.5z M33.4,1H4.6C2.6,1,1,2.6,1,4.5v52.9c0,2,1.6,3.5,3.6,3.5h28.9c2,0,3.6-1.6,3.6-3.5V4.5
			C37,2.6,35.4,1,33.4,1z"/>
	</defs>
	<clipPath id="SVGID_6_">
		<use xlink:href="#SVGID_5_"  style="overflow:visible;"/>
	</clipPath>
	<g class="st2">
		<defs>
			<rect id="SVGID_7_" x="-659" y="-120" width="1600" height="900"/>
		</defs>
		<clipPath id="SVGID_8_">
			<use xlink:href="#SVGID_7_"  style="overflow:visible;"/>
		</clipPath>
		<rect x="-4" y="-4" class="st3" width="46" height="70"/>
	</g>
</g>
<g>
	<defs>
		<ellipse id="SVGID_9_" cx="19" cy="53.3" rx="2.1" ry="2.1"/>
	</defs>
	<clipPath id="SVGID_10_">
		<use xlink:href="#SVGID_9_"  style="overflow:visible;"/>
	</clipPath>
	<g class="st4">
		<defs>
			<rect id="SVGID_11_" x="-659" y="-120" width="1600" height="900"/>
		</defs>
		<clipPath id="SVGID_12_">
			<use xlink:href="#SVGID_11_"  style="overflow:visible;"/>
		</clipPath>
		<rect x="11.9" y="46.3" class="st5" width="14.2" height="14.1"/>
	</g>
</g>
</svg>
